<?xml version="1.0" encoding="UTF-8"?>
<svg version="1.1" xmlns="http://www.w3.org/2000/svg" width="762" height="762">
<path d="M0 0 C0.77226007 0.00015598 1.54452014 0.00031196 2.34018203 0.00047267 C3.22971457 -0.00177462 4.11924711 -0.00402192 5.03573519 -0.00633731 C6.52142941 -0.00239679 6.52142941 -0.00239679 8.03713765 0.00162334 C9.08339481 0.00046949 10.12965196 -0.00068435 11.20761388 -0.00187316 C14.76069994 -0.00454832 18.3137419 -0.00001032 21.86682573 0.00441665 C24.42094032 0.00398113 26.97505486 0.00310658 29.52916917 0.00182748 C35.10662437 -0.00025206 40.68406894 0.00140736 46.26152292 0.00546569 C54.55508209 0.01148364 62.8486345 0.01180309 71.14219546 0.0109237 C85.09111358 0.00960761 99.04002698 0.01295949 112.98894372 0.01894111 C126.80678835 0.02485138 140.62463101 0.02870569 154.44247689 0.02979392 C155.30055681 0.02986266 156.15863673 0.0299314 157.04271907 0.03000222 C161.40019791 0.03034054 165.75767675 0.03064193 170.1151556 0.0309291 C201.00600804 0.03303138 231.89685791 0.03977394 262.7877089 0.04923171 C292.80398481 0.05841113 322.82026001 0.0654972 352.83653703 0.06973952 C353.76122611 0.06987105 354.6859152 0.07000258 355.63862516 0.07013809 C364.92445009 0.07145657 374.21027502 0.07273239 383.49609996 0.07397695 C402.41361039 0.07651339 421.33112078 0.07933464 440.24863115 0.08232803 C441.1184915 0.08246532 441.98835185 0.08260261 442.88457161 0.08274406 C469.55512961 0.08696845 496.22568716 0.09240041 522.89624467 0.09902114 C523.65368153 0.0992087 524.41111838 0.09939626 525.19150787 0.0995895 C555.87665125 0.10720609 586.56179429 0.11609912 617.24693742 0.12467116 C617.24693742 64.47467116 617.24693742 128.82467116 617.24693742 195.12467116 C549.59693742 195.12467116 481.94693742 195.12467116 412.24693742 195.12467116 C412.24693742 343.29467116 412.24693742 491.46467116 412.24693742 644.12467116 C343.27693742 644.12467116 274.30693742 644.12467116 203.24693742 644.12467116 C203.20660607 556.24714281 203.20660607 556.24714281 203.1981093 518.93326491 C203.19615277 510.39924797 203.19413267 501.86523104 203.19200578 493.33121413 C203.19174203 492.26228419 203.19147828 491.19335425 203.19120654 490.0920325 C203.18691109 473.0555675 203.17905873 456.01910604 203.16978462 438.98264312 C203.16028005 421.36985477 203.15484724 403.7570682 203.15284893 386.1442774 C203.15162499 376.30577227 203.14877556 366.46727443 203.14120736 356.62877196 C203.100725 302.45363263 203.49077281 248.29464043 204.24693742 194.12467116 C202.96983022 194.1957257 201.69272302 194.26678023 200.3769156 194.33998794 C198.66987779 194.43293759 196.96283482 194.52579244 195.25578752 194.61856765 C194.4177943 194.66544471 193.57980108 194.71232177 192.71641412 194.76061935 C185.47414464 195.15108373 178.25437667 195.24368063 171.00228944 195.19995612 C168.73394752 195.18644216 166.46566099 195.17992916 164.19728532 195.17473525 C160.86948376 195.16657793 157.54170469 195.15596318 154.2139174 195.14325637 C145.10776127 195.10946359 136.00158857 195.09547854 126.89537492 195.08951491 C125.931097 195.08884458 124.96681909 195.08817424 123.97332063 195.08748359 C107.28470705 195.08095607 90.59863654 195.20469933 73.91099992 195.37857741 C72.72942308 195.39080714 71.54784623 195.40303687 70.33046403 195.4156372 C58.60449991 195.53812028 46.87868137 195.67052948 35.1529757 195.81565112 C30.78473227 195.86890726 26.41645156 195.91847241 22.04815736 195.9673664 C19.01341393 196.00292663 15.97878057 196.04414372 12.94411149 196.08550185 C11.12887853 196.10610738 9.31364227 196.12642452 7.49840226 196.14639968 C6.66908567 196.15934569 5.83976907 196.17229171 4.98532167 196.18563003 C3.07250372 196.20363408 1.15930304 196.16999637 -0.75306258 196.12467116 C-2.71740637 194.16032737 -1.9120771 190.33082078 -1.91801009 187.64615554 C-1.92365363 186.85379752 -1.92929718 186.06143951 -1.93511174 185.24507064 C-1.95291998 182.5695271 -1.96355782 179.89400193 -1.97425399 177.21842116 C-1.98546227 175.30858796 -1.99709418 173.39875721 -2.00912032 171.48892898 C-2.04053261 166.28662537 -2.0656088 161.08430861 -2.08931718 155.88196487 C-2.11484285 150.45048133 -2.14519498 145.01902442 -2.17478499 139.58756179 C-2.22367067 130.46453035 -2.26834209 121.34148518 -2.31067977 112.21842116 C-2.35976778 101.65459397 -2.41606448 91.09082327 -2.4761009 80.52705306 C-2.52735657 71.47488027 -2.57471429 62.42269324 -2.61878845 53.37048263 C-2.64515527 47.95625603 -2.67290385 42.54204577 -2.70416198 37.12784499 C-2.73332565 32.03903256 -2.75761552 26.9502202 -2.7780622 21.8613655 C-2.78640044 19.98798446 -2.796471 18.11461025 -2.80835089 16.24124831 C-2.82422134 13.69522249 -2.83397347 11.14924736 -2.84208236 8.60318679 C-2.84820403 7.85193778 -2.8543257 7.10068877 -2.86063287 6.32667464 C-2.86287564 4.59230424 -2.81371356 2.85798221 -2.75306258 1.12467116 C-1.75306258 0.12467116 -1.75306258 0.12467116 0 0 Z M34.24693742 36.12467116 C28.22098567 42.69026038 25.4028266 49.21064453 25.24693742 58.12467116 C25.84270533 66.55809688 29.04852326 72.99833278 35.06724992 78.91373366 C41.45549602 84.1639926 48.486954 86.50912737 56.74693742 86.12467116 C65.37604082 84.96681125 72.32853897 81.25262903 77.77428117 74.42935866 C81.97920832 67.84870345 84.12321619 60.8859974 83.24693742 53.12467116 C80.76952043 42.71595516 75.28440546 36.19645194 66.55943742 30.31217116 C54.57600991 26.01622545 43.85192772 28.046537 34.24693742 36.12467116 Z M543.24693742 37.12467116 C537.22098567 43.69026038 534.4028266 50.21064453 534.24693742 59.12467116 C534.84270533 67.55809688 538.04852326 73.99833278 544.06724992 79.91373366 C550.45549602 85.1639926 557.486954 87.50912737 565.74693742 87.12467116 C574.37604082 85.96681125 581.32853897 82.25262903 586.77428117 75.42935866 C590.97920832 68.84870345 593.12321619 61.8859974 592.24693742 54.12467116 C589.76952043 43.71595516 584.28440546 37.19645194 575.55943742 31.31217116 C563.57600991 27.01622545 552.85192772 29.046537 543.24693742 37.12467116 Z M235.24693742 38.12467116 C229.22098567 44.69026038 226.4028266 51.21064453 226.24693742 60.12467116 C226.84270533 68.55809688 230.04852326 74.99833278 236.06724992 80.91373366 C242.45549602 86.1639926 249.486954 88.50912737 257.74693742 88.12467116 C266.37604082 86.96681125 273.32853897 83.25262903 278.77428117 76.42935866 C282.97920832 69.84870345 285.12321619 62.8859974 284.24693742 55.12467116 C281.76952043 44.71595516 276.28440546 38.19645194 267.55943742 32.31217116 C255.57600991 28.01622545 244.85192772 30.046537 235.24693742 38.12467116 Z M307.24693742 48.12467116 C307.24693742 54.39467116 307.24693742 60.66467116 307.24693742 67.12467116 C318.34080043 68.16875192 329.31560984 68.26024587 340.44933 68.23819656 C342.46107417 68.23791399 344.47281843 68.23807377 346.48456254 68.23863906 C351.90924871 68.23892432 357.33391247 68.23307156 362.75859347 68.2260651 C368.44136771 68.21978629 374.12414254 68.2192242 379.80691972 68.2180397 C390.55169618 68.21493968 401.29646238 68.2067443 412.04123434 68.19669021 C424.28072115 68.18548766 436.52020847 68.1800082 448.75969913 68.17499477 C473.92211776 68.16456051 499.08452658 68.14678396 524.24693742 68.12467116 C524.24693742 61.52467116 524.24693742 54.92467116 524.24693742 48.12467116 C452.63693742 48.12467116 381.02693742 48.12467116 307.24693742 48.12467116 Z M92.24693742 49.12467116 C92.24693742 55.06467116 92.24693742 61.00467116 92.24693742 67.12467116 C99.57163668 67.87212352 106.75911406 68.26990178 114.11851945 68.2540657 C115.14264436 68.25581802 116.16676927 68.25757033 117.22192826 68.25937575 C120.56621999 68.26373469 123.91045778 68.26087968 127.25474992 68.25748366 C129.59075873 68.2581579 131.92676747 68.25912892 134.26277604 68.26038283 C139.13608409 68.26185127 144.00937371 68.25973085 148.88267961 68.25504226 C155.14308109 68.24931369 161.40344 68.25264901 167.66383996 68.25861472 C172.47632102 68.26221645 177.28879185 68.2610841 182.10127321 68.25848693 C184.41146664 68.25781822 186.72166098 68.25864415 189.03185334 68.26096648 C192.24436115 68.26349003 195.45679821 68.25965811 198.6693007 68.2540657 C200.11072686 68.25710204 200.11072686 68.25710204 201.58127275 68.26019973 C202.45023683 68.25737991 203.31920091 68.25456008 204.21449723 68.25165481 C205.3531432 68.25108927 205.3531432 68.25108927 206.51479211 68.25051231 C208.27734681 68.3122656 208.27734681 68.3122656 209.24693742 67.12467116 C209.24693742 61.18467116 209.24693742 55.24467116 209.24693742 49.12467116 C170.63693742 49.12467116 132.02693742 49.12467116 92.24693742 49.12467116 Z M113.24693742 92.12467116 C113.24693742 98.72467116 113.24693742 105.32467116 113.24693742 112.12467116 C132.28856229 112.29620119 151.3302286 112.46274771 170.37193742 112.62467116 C171.42012981 112.63359397 171.42012981 112.63359397 172.48949781 112.64269704 C214.07563658 112.9963511 255.65894187 113.30041032 297.24693742 113.12467116 C297.00336598 115.05441142 297.00336598 115.05441142 296.7548739 117.02313632 C296.21081771 121.94707646 296.10695974 126.79936278 296.11995378 131.74922866 C296.11839379 132.67689176 296.1168338 133.60455486 296.11522653 134.56032896 C296.11125923 137.64909428 296.11439016 140.73780984 296.11754289 143.82657546 C296.11618646 146.05240074 296.11440517 148.2782258 296.11223283 150.50405044 C296.10767322 156.55294765 296.10944575 162.6018278 296.11261192 168.65072531 C296.11515971 175.04656679 296.11278975 181.44240689 296.11122575 187.83824844 C296.10928747 199.32616226 296.11239615 210.81406752 296.11748509 222.30198 C296.12189592 232.57190116 296.12118397 242.84181079 296.11656633 253.11173171 C296.01890938 327.46520394 296.01890938 327.46520394 296.92940202 401.81084365 C297.2486115 417.98097877 297.21762772 434.09979167 296.83772722 450.26853103 C296.05863427 484.43182225 296.32620707 518.5821565 296.68443742 552.74967116 C296.69731797 553.98190665 296.71019853 555.21414214 296.7234694 556.4837181 C296.88363901 571.69754927 297.0595202 586.91115256 297.24693742 602.12467116 C303.84693742 602.12467116 310.44693742 602.12467116 317.24693742 602.12467116 C317.2640003 556.50409707 317.27997772 510.88352272 317.28928056 465.26294631 C317.28941862 464.58765286 317.28955667 463.91235941 317.28969891 463.21660252 C317.29269188 448.54034663 317.29546206 433.8640907 317.29800275 419.18783472 C317.29925008 411.99051066 317.30054663 404.79318662 317.30186906 397.59586257 C317.3020652 396.52153722 317.3020652 396.52153722 317.3022653 395.42550832 C317.30652598 372.21453629 317.31403679 349.00356669 317.32323464 325.79259614 C317.33267014 301.93856188 317.33882354 278.08452897 317.34085241 254.23049288 C317.34114056 250.86059754 317.3414662 247.49070221 317.34181466 244.12080688 C317.34188209 243.45756888 317.34194951 242.79433088 317.34201898 242.11099475 C317.34327317 230.7800022 317.3485946 219.44901485 317.35485389 208.11802422 C317.36013533 198.04474375 317.36173852 187.9714669 317.3604388 177.89818515 C317.35979762 172.08442652 317.36078821 166.27068013 317.3661429 160.45692367 C317.37101033 155.13334399 317.37125404 149.80978476 317.36783632 144.48620414 C317.36741392 142.56140866 317.3686814 140.63661191 317.3718206 138.71181895 C317.39307996 125.38951421 317.39307996 125.38951421 316.24693742 112.12467116 C316.8355854 112.28745541 317.42423339 112.45023966 318.03071919 112.61795676 C321.31772311 113.36949477 324.58848166 113.23831083 327.94109025 113.20696181 C329.11002922 113.20211812 329.11002922 113.20211812 330.30258312 113.19717658 C332.91592036 113.18510503 335.52915236 113.16573141 338.14244523 113.14639968 C340.01493029 113.13625652 341.88741784 113.12656288 343.75990739 113.11728591 C348.84631931 113.09080869 353.93267354 113.05802835 359.01904073 113.02413601 C364.3334909 112.9897893 369.64797198 112.9612121 374.96245256 112.93202895 C385.02756421 112.87587912 395.09263716 112.81452317 405.15770664 112.75130761 C416.61584165 112.67959532 428.07400766 112.61367035 439.53217998 112.54823715 C463.10380622 112.41349872 486.67538221 112.2712689 510.24693742 112.12467116 C510.24693742 105.52467116 510.24693742 98.92467116 510.24693742 92.12467116 C484.03638013 92.10140502 457.82582537 92.08361703 431.61525979 92.07285899 C419.44202634 92.06772847 407.26879946 92.0607485 395.09557023 92.04923171 C384.47082946 92.0391848 373.84609346 92.03279423 363.22134807 92.03058267 C357.6088938 92.02929235 351.99645316 92.02631525 346.38400331 92.01894111 C324.66152884 91.99148195 302.97014581 91.99632145 281.26324907 92.89638442 C272.7335282 93.24794494 264.20389335 93.27572357 255.66808 93.25504226 C253.04391716 93.24963921 250.41992368 93.25507776 247.79576555 93.26138991 C239.354695 93.26434943 230.93852373 93.13576043 222.50536027 92.76085586 C201.7467832 91.84419642 180.98299195 92.01092314 160.20885148 92.05600661 C154.89798321 92.06640192 149.58710989 92.07083826 144.2762343 92.07584304 C133.9331203 92.08643461 123.5900361 92.10396011 113.24693742 92.12467116 Z M36.24693742 121.12467116 C30.22098567 127.69026038 27.4028266 134.21064453 27.24693742 143.12467116 C27.84270533 151.55809688 31.04852326 157.99833278 37.06724992 163.91373366 C43.45549602 169.1639926 50.486954 171.50912737 58.74693742 171.12467116 C67.37604082 169.96681125 74.32853897 166.25262903 79.77428117 159.42935866 C83.97920832 152.84870345 86.12321619 145.8859974 85.24693742 138.12467116 C82.76952043 127.71595516 77.28440546 121.19645194 68.55943742 115.31217116 C56.57600991 111.01622545 45.85192772 113.046537 36.24693742 121.12467116 Z M541.24693742 121.12467116 C535.22098567 127.69026038 532.4028266 134.21064453 532.24693742 143.12467116 C532.84270533 151.55809688 536.04852326 157.99833278 542.06724992 163.91373366 C548.45549602 169.1639926 555.486954 171.50912737 563.74693742 171.12467116 C572.37604082 169.96681125 579.32853897 166.25262903 584.77428117 159.42935866 C588.97920832 152.84870345 591.12321619 145.8859974 590.24693742 138.12467116 C587.76952043 127.71595516 582.28440546 121.19645194 573.55943742 115.31217116 C561.57600991 111.01622545 550.85192772 113.046537 541.24693742 121.12467116 Z M254.43956437 132.2005989 C253.61554691 132.20461841 252.79152944 132.20863792 251.94254174 132.21277923 C235.69421617 132.29223539 219.44592046 132.37705605 203.19763341 132.46401042 C192.84209058 132.51930338 182.48654434 132.57278428 172.13097062 132.62198562 C163.10211476 132.66488773 154.07328375 132.71117926 145.04446634 132.76154971 C140.26446931 132.7880988 135.48447705 132.8129508 130.70445123 132.83374519 C126.20571716 132.85337015 121.7070302 132.87753128 117.20833841 132.90516204 C115.55799529 132.91450096 113.90764186 132.92218749 112.25728288 132.92809028 C110.00197739 132.93640522 107.74678458 132.95069646 105.49152055 132.96645278 C104.22996298 132.97290533 102.96840541 132.97935788 101.66861882 132.98600597 C97.79695781 133.07189148 97.79695781 133.07189148 92.24693742 134.12467116 C92.24693742 140.06467116 92.24693742 146.00467116 92.24693742 152.12467116 C100.91426112 153.06009428 109.46201362 153.2619138 118.17345109 153.23819656 C119.64303522 153.23791386 121.11261949 153.23807402 122.58220353 153.23863906 C126.53805018 153.23892384 130.49386598 153.23307908 134.44970551 153.2260651 C138.59633266 153.21977807 142.74296066 153.21922356 146.88959184 153.2180397 C154.72678583 153.21494207 162.56396572 153.20674998 170.40115353 153.19669021 C179.3298946 153.18548016 188.25863636 153.18000633 197.18738272 153.17499477 C215.54057559 153.16456593 233.89375537 153.14699709 252.24693742 153.12467116 C252.24178369 153.67654066 252.23662996 154.22841016 252.23132005 154.79700297 C252.06278175 172.8853304 251.90196417 190.97372324 251.74693742 209.06217116 C251.73801461 210.10169708 251.73801461 210.10169708 251.72891155 211.16222352 C251.39420343 250.21240081 251.14931481 289.26021801 251.18443742 328.31217116 C251.18572145 329.75060441 251.18572145 329.75060441 251.18703141 331.21809692 C251.19791438 342.52031068 251.21712528 353.82249135 251.24693742 365.12467116 C254.39275165 365.15355631 257.53853211 365.17143039 260.68443742 365.18717116 C261.58226945 365.19555007 262.48010148 365.20392898 263.40514055 365.21256179 C264.6861464 365.21739577 264.6861464 365.21739577 265.99303117 365.22232741 C266.78379045 365.22756423 267.57454972 365.23280105 268.3892714 365.23819656 C270.26286431 365.32963026 270.26286431 365.32963026 271.24693742 364.12467116 C271.34493263 361.14113794 271.37685173 358.18074395 271.36719194 355.19679946 C271.36804636 354.24856089 271.36890079 353.30032232 271.3697811 352.32334924 C271.3714388 349.12030435 271.36590982 345.9173109 271.36046281 342.71427077 C271.36018098 340.42843806 271.3603386 338.14260526 271.36090532 335.85677261 C271.36119343 329.62974982 271.35529442 323.40274612 271.34833136 317.17572779 C271.34210017 310.67608965 271.34149421 304.17645112 271.34030595 297.67681045 C271.33754623 286.76058281 271.33129067 275.84436225 271.32237687 264.92813796 C271.31320351 253.68237009 271.30612231 242.43660413 271.30186906 231.19083327 C271.30160634 230.49811302 271.30134361 229.80539277 271.30107293 229.091681 C271.29976793 225.61664712 271.29850421 222.14161322 271.29726103 218.66657931 C271.2868875 189.81927194 271.26919427 160.97197172 271.24693742 132.12467116 C265.64458137 132.12467116 260.04187044 132.17325034 254.43956437 132.2005989 Z M513.54173722 132.16263503 C512.4019391 132.17104919 511.26214097 132.17946334 510.08780351 132.18813247 C508.84545442 132.19748321 507.60310533 132.20683395 506.3231093 132.21646804 C504.30142279 132.23144556 502.27973627 132.2464226 500.25804963 132.26138229 C498.08422492 132.27748969 495.91040079 132.2936753 493.7365767 132.30986709 C489.16414612 132.34386993 484.59171174 132.37734112 480.01927629 132.41068191 C478.85539565 132.41917088 478.85539565 132.41917088 477.66800227 132.42783136 C476.08033943 132.43940858 474.49267658 132.45098378 472.90501371 132.46255702 C462.27174935 132.54007149 451.63848722 132.61783096 441.0052382 132.69742507 C431.51289857 132.76840882 422.02055026 132.83810744 412.52818742 132.90592116 C411.37875657 132.91413705 411.37875657 132.91413705 410.2061049 132.92251891 C387.21963667 133.08606551 364.23406918 133.20588012 341.24693742 133.12467116 C341.22381588 145.49385831 341.2060233 157.86304036 341.19512525 170.23224467 C341.18989601 175.97512179 341.18279762 181.71798417 341.17149797 187.46085281 C341.16067055 192.99807111 341.1546609 198.5352752 341.15206018 204.07250327 C341.15020566 206.19011394 341.14658456 208.30772379 341.14120736 210.42532844 C341.13399886 213.38038391 341.1329464 216.33537987 341.13341203 219.29044265 C341.12981675 220.17516753 341.12622148 221.05989242 341.12251725 221.97142715 C340.74245827 225.8599864 340.74245827 225.8599864 342.24693742 229.12467116 C348.51693742 229.12467116 354.78693742 229.12467116 361.24693742 229.12467116 C361.24693742 204.37467116 361.24693742 179.62467116 361.24693742 154.12467116 C369.78053117 154.06408523 378.31412492 154.00349929 387.10631242 153.94107741 C393.29415638 153.89527667 399.48199554 153.84901021 405.66983094 153.80208606 C413.63074097 153.74177656 421.59165376 153.68249202 429.55260148 153.62735671 C468.31764027 153.39635858 468.31764027 153.39635858 507.07506242 152.65201491 C507.81484079 152.63332414 508.55461915 152.61463336 509.31681504 152.5953762 C516.8988915 152.60145255 516.8988915 152.60145255 524.24693742 151.12467116 C524.24693742 144.85467116 524.24693742 138.58467116 524.24693742 132.12467116 C520.67793884 132.12467116 517.11051392 132.13597418 513.54173722 132.16263503 Z M332.24693742 250.12467116 C326.22098567 256.69026038 323.4028266 263.21064453 323.24693742 272.12467116 C323.84270533 280.55809688 327.04852326 286.99833278 333.06724992 292.91373366 C339.45549602 298.1639926 346.486954 300.50912737 354.74693742 300.12467116 C363.37604082 298.96681125 370.32853897 295.25262903 375.77428117 288.42935866 C379.97920832 281.84870345 382.12321619 274.8859974 381.24693742 267.12467116 C378.76952043 256.71595516 373.28440546 250.19645194 364.55943742 244.31217116 C352.57600991 240.01622545 341.85192772 242.046537 332.24693742 250.12467116 Z M343.24693742 312.12467116 C340.03351958 328.19176035 341.10861171 345.28332845 341.13341203 361.58609695 C341.13369464 364.2094083 341.13353472 366.83271972 341.13296952 369.45603103 C341.13244926 375.06733482 341.13554357 380.67862684 341.14120736 386.28992767 C341.1493905 394.40257826 341.15194451 402.51522325 341.15319536 410.62787752 C341.15537526 423.79526898 341.16200634 436.96265419 341.17149797 450.13004226 C341.1806997 462.90868778 341.18776697 475.68733159 341.19200578 488.46597976 C341.1922685 489.25579156 341.19253123 490.04560336 341.19280191 490.85934885 C341.1941071 494.82224038 341.19537077 498.78513191 341.19661381 502.74802345 C341.20695332 535.5402441 341.22482084 568.33245634 341.24693742 601.12467116 C348.17693742 601.45467116 355.10693742 601.78467116 362.24693742 602.12467116 C362.24693742 506.42467116 362.24693742 410.72467116 362.24693742 312.12467116 C355.97693742 312.12467116 349.70693742 312.12467116 343.24693742 312.12467116 Z M240.24693742 383.12467116 C234.22098567 389.69026038 231.4028266 396.21064453 231.24693742 405.12467116 C231.84270533 413.55809688 235.04852326 419.99833278 241.06724992 425.91373366 C247.45549602 431.1639926 254.486954 433.50912737 262.74693742 433.12467116 C271.37604082 431.96681125 278.32853897 428.25262903 283.77428117 421.42935866 C287.97920832 414.84870345 290.12321619 407.8859974 289.24693742 400.12467116 C286.76952043 389.71595516 281.28440546 383.19645194 272.55943742 377.31217116 C260.57600991 373.01622545 249.85192772 375.046537 240.24693742 383.12467116 Z M251.24693742 442.12467116 C251.16239386 444.1879464 251.1501162 446.25418894 251.16464677 448.31914443 C251.1678759 448.97336723 251.17110503 449.62759004 251.17443201 450.30163777 C251.18656551 452.50971488 251.2059259 454.71767113 251.2252089 456.92569656 C251.23534552 458.50217597 251.24503986 460.07865829 251.25432267 461.65514297 C251.28086555 465.94837497 251.31363224 470.24154004 251.34747257 474.53471989 C251.38175457 479.01637561 251.4103735 483.49806729 251.43957963 487.97975845 C251.49579233 496.4725055 251.55713678 504.96520752 251.62030097 513.45790542 C251.69194406 523.12398182 251.75790274 532.79009436 251.82337144 542.45621425 C251.95821139 562.34574701 252.10043218 582.23522121 252.24693742 602.12467116 C258.51693742 602.12467116 264.78693742 602.12467116 271.24693742 602.12467116 C272.20221734 598.30355148 272.37373778 595.35662725 272.37633195 591.44107741 C272.37806161 590.77103966 272.37979127 590.1010019 272.38157335 589.41065997 C272.38594452 587.16947232 272.38297118 584.92835988 272.37974992 582.68717116 C272.38076712 581.08303987 272.38210747 579.47890875 272.38374772 577.87477798 C272.38646521 573.52916188 272.3819482 569.18358112 272.37550798 564.83796996 C272.37194464 562.1301607 272.3703196 559.42235675 272.36925187 556.71454543 C272.35043446 518.17997443 271.87197451 479.65363579 271.24693742 441.12467116 C268.10112319 441.09578602 264.95534273 441.07791193 261.80943742 441.06217116 C260.91160539 441.05379226 260.01377336 441.04541335 259.0887343 441.03678054 C258.23473039 441.03355788 257.38072648 441.03033523 256.50084367 441.02701491 C255.31470475 441.01915969 255.31470475 441.01915969 254.10460344 441.01114577 C252.23101053 440.91971207 252.23101053 440.91971207 251.24693742 442.12467116 Z " fill="#0267FE" transform="translate(71.75306257978082,68.87532883509994)"/>
<path d="M0 0 C3.98561154 2.62688033 6.23980531 5.28191592 7.75 9.8125 C8.18619612 15.04685345 8.0542595 18.8022995 5.13671875 23.265625 C1.95425596 26.81563983 -1.80007043 28.56834894 -6.5234375 29.0390625 C-11.8100829 28.80450144 -15.11569569 27.09584854 -18.87109375 23.41015625 C-21.97904214 19.80916222 -22.41943274 17.00844152 -22.125 12.375 C-21.49360501 8.01329437 -20.20815483 5.17040548 -17.25 1.8125 C-11.61225045 -2.03142015 -6.27673045 -2.29342074 0 0 Z " fill="#0366FA" transform="translate(339.25,459.1875)"/>
<path d="M0 0 C3.98561154 2.62688033 6.23980531 5.28191592 7.75 9.8125 C8.18619612 15.04685345 8.0542595 18.8022995 5.13671875 23.265625 C1.95425596 26.81563983 -1.80007043 28.56834894 -6.5234375 29.0390625 C-11.8100829 28.80450144 -15.11569569 27.09584854 -18.87109375 23.41015625 C-21.97904214 19.80916222 -22.41943274 17.00844152 -22.125 12.375 C-21.49360501 8.01329437 -20.20815483 5.17040548 -17.25 1.8125 C-11.61225045 -2.03142015 -6.27673045 -2.29342074 0 0 Z " fill="#0366FA" transform="translate(431.25,326.1875)"/>
<path d="M0 0 C3.98561154 2.62688033 6.23980531 5.28191592 7.75 9.8125 C8.18619612 15.04685345 8.0542595 18.8022995 5.13671875 23.265625 C1.95425596 26.81563983 -1.80007043 28.56834894 -6.5234375 29.0390625 C-11.8100829 28.80450144 -15.11569569 27.09584854 -18.87109375 23.41015625 C-21.97904214 19.80916222 -22.41943274 17.00844152 -22.125 12.375 C-21.49360501 8.01329437 -20.20815483 5.17040548 -17.25 1.8125 C-11.61225045 -2.03142015 -6.27673045 -2.29342074 0 0 Z " fill="#0366FA" transform="translate(640.25,197.1875)"/>
<path d="M0 0 C3.98561154 2.62688033 6.23980531 5.28191592 7.75 9.8125 C8.18619612 15.04685345 8.0542595 18.8022995 5.13671875 23.265625 C1.95425596 26.81563983 -1.80007043 28.56834894 -6.5234375 29.0390625 C-11.8100829 28.80450144 -15.11569569 27.09584854 -18.87109375 23.41015625 C-21.97904214 19.80916222 -22.41943274 17.00844152 -22.125 12.375 C-21.49360501 8.01329437 -20.20815483 5.17040548 -17.25 1.8125 C-11.61225045 -2.03142015 -6.27673045 -2.29342074 0 0 Z " fill="#0366FA" transform="translate(135.25,197.1875)"/>
<path d="M0 0 C3.98561154 2.62688033 6.23980531 5.28191592 7.75 9.8125 C8.18619612 15.04685345 8.0542595 18.8022995 5.13671875 23.265625 C1.95425596 26.81563983 -1.80007043 28.56834894 -6.5234375 29.0390625 C-11.8100829 28.80450144 -15.11569569 27.09584854 -18.87109375 23.41015625 C-21.97904214 19.80916222 -22.41943274 17.00844152 -22.125 12.375 C-21.49360501 8.01329437 -20.20815483 5.17040548 -17.25 1.8125 C-11.61225045 -2.03142015 -6.27673045 -2.29342074 0 0 Z " fill="#0366FA" transform="translate(334.25,114.1875)"/>
<path d="M0 0 C3.98561154 2.62688033 6.23980531 5.28191592 7.75 9.8125 C8.18619612 15.04685345 8.0542595 18.8022995 5.13671875 23.265625 C1.95425596 26.81563983 -1.80007043 28.56834894 -6.5234375 29.0390625 C-11.8100829 28.80450144 -15.11569569 27.09584854 -18.87109375 23.41015625 C-21.97904214 19.80916222 -22.41943274 17.00844152 -22.125 12.375 C-21.49360501 8.01329437 -20.20815483 5.17040548 -17.25 1.8125 C-11.61225045 -2.03142015 -6.27673045 -2.29342074 0 0 Z " fill="#0366FA" transform="translate(642.25,113.1875)"/>
<path d="M0 0 C3.98561154 2.62688033 6.23980531 5.28191592 7.75 9.8125 C8.18619612 15.04685345 8.0542595 18.8022995 5.13671875 23.265625 C1.95425596 26.81563983 -1.80007043 28.56834894 -6.5234375 29.0390625 C-11.8100829 28.80450144 -15.11569569 27.09584854 -18.87109375 23.41015625 C-21.97904214 19.80916222 -22.41943274 17.00844152 -22.125 12.375 C-21.49360501 8.01329437 -20.20815483 5.17040548 -17.25 1.8125 C-11.61225045 -2.03142015 -6.27673045 -2.29342074 0 0 Z " fill="#0366FA" transform="translate(133.25,112.1875)"/>
</svg>
